# xmcd
#
# Track frame offsets: 
#        150
#        12013
#        17558
#        34208
#        54240
#        74550
#        80590
#        88880
#
# Disc length: 1442 seconds
#
# Revision: 0
# Processed by: cddbd v1.5.2PL0 Copyright (c) Steve Scherf et al.
# Submitted via: ExactAudioCopy v0.95b3
#
DISCID=5e05a008
DTITLE=Alan Parsons Project  - The Complete Audio Guide To The Alan Pa
DTITLE=rsons Project - Disc 6
DYEAR=1900
DGENRE=
TTITLE0=Children Of The Moon (excerpt)
TTITLE1=Gemini (excerpt)
TTITLE2=Silence And I (excerpt)
TTITLE3=You're Gonna Get Your Fingers Burned
TTITLE4=Psychobabble
TTITLE5=Mammagamma (excerpt)
TTITLE6=Step By Step (excerpt)
TTITLE7=Old And Wise
EXTD=
EXTT0=
EXTT1=
EXTT2=
EXTT3=
EXTT4=
EXTT5=
EXTT6=
EXTT7=
PLAYORDER=
